<svg width="56" height="56" viewBox="0 0 56 56" fill="none" xmlns="http://www.w3.org/2000/svg">
<g clip-path="url(#clip0_159_407)">
<path fill-rule="evenodd" clip-rule="evenodd" d="M6 1.45763H51C51.5523 1.45763 52 1.90534 52 2.45763V54.1017C52 54.654 51.5523 55.1017 51 55.1017H6C5.44772 55.1017 5 54.654 5 54.1017V2.45763C5 1.90534 5.44772 1.45763 6 1.45763ZM4 2.45763C4 1.35306 4.89543 0.457626 6 0.457626H51C52.1046 0.457626 53 1.35306 53 2.45763V54.1017C53 55.2063 52.1046 56.1017 51 56.1017H6C4.89543 56.1017 4 55.2063 4 54.1017V2.45763ZM24.5934 14.9921C24.5934 18.7972 21.5087 21.8819 17.7035 21.8819C13.8984 21.8819 10.8137 18.7972 10.8137 14.9921C10.8137 11.1869 13.8984 8.10223 17.7035 8.10223C21.5087 8.10223 24.5934 11.1869 24.5934 14.9921ZM25.5934 14.9921C25.5934 19.3495 22.061 22.8819 17.7035 22.8819C13.3461 22.8819 9.8137 19.3495 9.8137 14.9921C9.8137 10.6346 13.3461 7.10223 17.7035 7.10223C22.061 7.10223 25.5934 10.6346 25.5934 14.9921ZM38.8812 19.3896C41.081 19.3896 42.8643 17.6063 42.8643 15.4065C42.8643 13.2068 41.081 11.4235 38.8812 11.4235C36.6815 11.4235 34.8982 13.2068 34.8982 15.4065C34.8982 17.6063 36.6815 19.3896 38.8812 19.3896ZM38.8812 20.3896C41.6333 20.3896 43.8643 18.1586 43.8643 15.4065C43.8643 12.6545 41.6333 10.4235 38.8812 10.4235C36.1292 10.4235 33.8982 12.6545 33.8982 15.4065C33.8982 18.1586 36.1292 20.3896 38.8812 20.3896ZM21.2713 37.8305C21.2713 40.0302 19.488 41.8135 17.2882 41.8135C15.0884 41.8135 13.3052 40.0302 13.3052 37.8305C13.3052 35.6307 15.0884 33.8474 17.2882 33.8474C19.488 33.8474 21.2713 35.6307 21.2713 37.8305ZM22.2713 37.8305C22.2713 40.5825 20.0403 42.8135 17.2882 42.8135C14.5362 42.8135 12.3052 40.5825 12.3052 37.8305C12.3052 35.0784 14.5362 32.8474 17.2882 32.8474C20.0403 32.8474 22.2713 35.0784 22.2713 37.8305ZM39.2965 43.475C43.1017 43.475 46.1864 40.3904 46.1864 36.5852C46.1864 32.7801 43.1017 29.6954 39.2965 29.6954C35.4914 29.6954 32.4067 32.7801 32.4067 36.5852C32.4067 40.3904 35.4914 43.475 39.2965 43.475ZM39.2965 44.475C43.654 44.475 47.1864 40.9426 47.1864 36.5852C47.1864 32.2278 43.654 28.6954 39.2965 28.6954C34.9391 28.6954 31.4067 32.2278 31.4067 36.5852C31.4067 40.9426 34.9391 44.475 39.2965 44.475ZM22.2712 49.4575H15.6271V51.949H22.2712V49.4575ZM24.7627 49.4574H31.4068V51.9489H24.7627V49.4574ZM40.5422 49.4574H33.8981V51.9489H40.5422V49.4574Z" fill="#C41230"/>
<path d="M15.6271 49.4575V48.9575H15.1271V49.4575H15.6271ZM22.2712 49.4575H22.7712V48.9575H22.2712V49.4575ZM15.6271 51.949H15.1271V52.449H15.6271V51.949ZM22.2712 51.949V52.449H22.7712V51.949H22.2712ZM31.4068 49.4574H31.9068V48.9574H31.4068V49.4574ZM24.7627 49.4574V48.9574H24.2627V49.4574H24.7627ZM31.4068 51.9489V52.4489H31.9068V51.9489H31.4068ZM24.7627 51.9489H24.2627V52.4489H24.7627V51.9489ZM33.8981 49.4574V48.9574H33.3981V49.4574H33.8981ZM40.5422 49.4574H41.0422V48.9574H40.5422V49.4574ZM33.8981 51.9489H33.3981V52.4489H33.8981V51.9489ZM40.5422 51.9489V52.4489H41.0422V51.9489H40.5422ZM51 0.957626H6V1.95763H51V0.957626ZM52.5 2.45763C52.5 1.6292 51.8284 0.957626 51 0.957626V1.95763C51.2761 1.95763 51.5 2.18148 51.5 2.45763H52.5ZM52.5 54.1017V2.45763H51.5V54.1017H52.5ZM51 55.6017C51.8284 55.6017 52.5 54.9301 52.5 54.1017H51.5C51.5 54.3778 51.2761 54.6017 51 54.6017V55.6017ZM6 55.6017H51V54.6017H6V55.6017ZM4.5 54.1017C4.5 54.9301 5.17157 55.6017 6 55.6017V54.6017C5.72386 54.6017 5.5 54.3778 5.5 54.1017H4.5ZM4.5 2.45763V54.1017H5.5V2.45763H4.5ZM6 0.957626C5.17157 0.957626 4.5 1.6292 4.5 2.45763H5.5C5.5 2.18148 5.72386 1.95763 6 1.95763V0.957626ZM6 -0.0423737C4.61929 -0.0423737 3.5 1.07691 3.5 2.45763H4.5C4.5 1.6292 5.17157 0.957626 6 0.957626V-0.0423737ZM51 -0.0423737H6V0.957626H51V-0.0423737ZM53.5 2.45763C53.5 1.07692 52.3807 -0.0423737 51 -0.0423737V0.957626C51.8284 0.957626 52.5 1.6292 52.5 2.45763H53.5ZM53.5 54.1017V2.45763H52.5V54.1017H53.5ZM51 56.6017C52.3807 56.6017 53.5 55.4824 53.5 54.1017H52.5C52.5 54.9301 51.8284 55.6017 51 55.6017V56.6017ZM6 56.6017H51V55.6017H6V56.6017ZM3.5 54.1017C3.5 55.4824 4.61929 56.6017 6 56.6017V55.6017C5.17157 55.6017 4.5 54.9301 4.5 54.1017H3.5ZM3.5 2.45763V54.1017H4.5V2.45763H3.5ZM17.7035 22.3819C21.7848 22.3819 25.0934 19.0734 25.0934 14.9921H24.0934C24.0934 18.5211 21.2325 21.3819 17.7035 21.3819V22.3819ZM10.3137 14.9921C10.3137 19.0734 13.6222 22.3819 17.7035 22.3819V21.3819C14.1745 21.3819 11.3137 18.5211 11.3137 14.9921H10.3137ZM17.7035 7.60223C13.6222 7.60223 10.3137 10.9108 10.3137 14.9921H11.3137C11.3137 11.4631 14.1745 8.60223 17.7035 8.60223V7.60223ZM25.0934 14.9921C25.0934 10.9108 21.7848 7.60223 17.7035 7.60223V8.60223C21.2325 8.60223 24.0934 11.4631 24.0934 14.9921H25.0934ZM17.7035 23.3819C22.3371 23.3819 26.0934 19.6256 26.0934 14.9921H25.0934C25.0934 19.0734 21.7848 22.3819 17.7035 22.3819V23.3819ZM9.3137 14.9921C9.3137 19.6256 13.07 23.3819 17.7035 23.3819V22.3819C13.6222 22.3819 10.3137 19.0734 10.3137 14.9921H9.3137ZM17.7035 6.60223C13.07 6.60223 9.3137 10.3585 9.3137 14.9921H10.3137C10.3137 10.9108 13.6222 7.60223 17.7035 7.60223V6.60223ZM26.0934 14.9921C26.0934 10.3585 22.3371 6.60223 17.7035 6.60223V7.60223C21.7848 7.60223 25.0934 10.9108 25.0934 14.9921H26.0934ZM42.3643 15.4065C42.3643 17.3302 40.8049 18.8896 38.8812 18.8896V19.8896C41.3572 19.8896 43.3643 17.8825 43.3643 15.4065H42.3643ZM38.8812 11.9235C40.8049 11.9235 42.3643 13.4829 42.3643 15.4065H43.3643C43.3643 12.9306 41.3572 10.9235 38.8812 10.9235V11.9235ZM35.3982 15.4065C35.3982 13.4829 36.9576 11.9235 38.8812 11.9235V10.9235C36.4053 10.9235 34.3982 12.9306 34.3982 15.4065H35.3982ZM38.8812 18.8896C36.9576 18.8896 35.3982 17.3302 35.3982 15.4065H34.3982C34.3982 17.8825 36.4053 19.8896 38.8812 19.8896V18.8896ZM43.3643 15.4065C43.3643 17.8825 41.3572 19.8896 38.8812 19.8896V20.8896C41.9094 20.8896 44.3643 18.4348 44.3643 15.4065H43.3643ZM38.8812 10.9235C41.3572 10.9235 43.3643 12.9306 43.3643 15.4065H44.3643C44.3643 12.3783 41.9094 9.92349 38.8812 9.92349V10.9235ZM34.3982 15.4065C34.3982 12.9306 36.4053 10.9235 38.8812 10.9235V9.92349C35.853 9.92349 33.3982 12.3783 33.3982 15.4065H34.3982ZM38.8812 19.8896C36.4053 19.8896 34.3982 17.8825 34.3982 15.4065H33.3982C33.3982 18.4348 35.853 20.8896 38.8812 20.8896V19.8896ZM17.2882 42.3135C19.7641 42.3135 21.7713 40.3064 21.7713 37.8305H20.7713C20.7713 39.7541 19.2119 41.3135 17.2882 41.3135V42.3135ZM12.8052 37.8305C12.8052 40.3064 14.8123 42.3135 17.2882 42.3135V41.3135C15.3646 41.3135 13.8052 39.7541 13.8052 37.8305H12.8052ZM17.2882 33.3474C14.8123 33.3474 12.8052 35.3545 12.8052 37.8305H13.8052C13.8052 35.9068 15.3646 34.3474 17.2882 34.3474V33.3474ZM21.7713 37.8305C21.7713 35.3545 19.7641 33.3474 17.2882 33.3474V34.3474C19.2119 34.3474 20.7713 35.9068 20.7713 37.8305H21.7713ZM17.2882 43.3135C20.3164 43.3135 22.7713 40.8587 22.7713 37.8305H21.7713C21.7713 40.3064 19.7641 42.3135 17.2882 42.3135V43.3135ZM11.8052 37.8305C11.8052 40.8587 14.26 43.3135 17.2882 43.3135V42.3135C14.8123 42.3135 12.8052 40.3064 12.8052 37.8305H11.8052ZM17.2882 32.3474C14.26 32.3474 11.8052 34.8023 11.8052 37.8305H12.8052C12.8052 35.3545 14.8123 33.3474 17.2882 33.3474V32.3474ZM22.7713 37.8305C22.7713 34.8023 20.3164 32.3474 17.2882 32.3474V33.3474C19.7641 33.3474 21.7713 35.3545 21.7713 37.8305H22.7713ZM45.6864 36.5852C45.6864 40.1142 42.8256 42.975 39.2965 42.975V43.975C43.3778 43.975 46.6864 40.6665 46.6864 36.5852H45.6864ZM39.2965 30.1954C42.8256 30.1954 45.6864 33.0562 45.6864 36.5852H46.6864C46.6864 32.5039 43.3778 29.1954 39.2965 29.1954V30.1954ZM32.9067 36.5852C32.9067 33.0562 35.7675 30.1954 39.2965 30.1954V29.1954C35.2153 29.1954 31.9067 32.5039 31.9067 36.5852H32.9067ZM39.2965 42.975C35.7675 42.975 32.9067 40.1142 32.9067 36.5852H31.9067C31.9067 40.6665 35.2153 43.975 39.2965 43.975V42.975ZM46.6864 36.5852C46.6864 40.6665 43.3778 43.975 39.2965 43.975V44.975C43.9301 44.975 47.6864 41.2188 47.6864 36.5852H46.6864ZM39.2965 29.1954C43.3778 29.1954 46.6864 32.5039 46.6864 36.5852H47.6864C47.6864 31.9516 43.9301 28.1954 39.2965 28.1954V29.1954ZM31.9067 36.5852C31.9067 32.5039 35.2153 29.1954 39.2965 29.1954V28.1954C34.663 28.1954 30.9067 31.9516 30.9067 36.5852H31.9067ZM39.2965 43.975C35.2153 43.975 31.9067 40.6665 31.9067 36.5852H30.9067C30.9067 41.2188 34.663 44.975 39.2965 44.975V43.975ZM15.6271 49.9575H22.2712V48.9575H15.6271V49.9575ZM16.1271 51.949V49.4575H15.1271V51.949H16.1271ZM22.2712 51.449H15.6271V52.449H22.2712V51.449ZM21.7712 49.4575V51.949H22.7712V49.4575H21.7712ZM31.4068 48.9574H24.7627V49.9574H31.4068V48.9574ZM31.9068 51.9489V49.4574H30.9068V51.9489H31.9068ZM24.7627 52.4489H31.4068V51.4489H24.7627V52.4489ZM24.2627 49.4574V51.9489H25.2627V49.4574H24.2627ZM33.8981 49.9574H40.5422V48.9574H33.8981V49.9574ZM34.3981 51.9489V49.4574H33.3981V51.9489H34.3981ZM40.5422 51.4489H33.8981V52.4489H40.5422V51.4489ZM40.0422 49.4574V51.9489H41.0422V49.4574H40.0422Z" fill="#C41230"/>
</g>
<defs>
<clipPath id="clip0_159_407">
<rect width="56" height="56" fill="white"/>
</clipPath>
</defs>
</svg>
