<svg width="50" height="50" viewBox="0 0 50 50" fill="none" xmlns="http://www.w3.org/2000/svg">
<path fill-rule="evenodd" clip-rule="evenodd" d="M11.0462 46.6664L36.6124 4.83081L37.8923 5.61299L12.3261 47.4485L11.0462 46.6664ZM13.3131 8.52842C9.10628 8.52842 5.69598 11.9387 5.69598 16.1455C5.69598 20.3523 9.10628 23.7626 13.3131 23.7626C17.5199 23.7626 20.9302 20.3523 20.9302 16.1455C20.9302 11.9387 17.5199 8.52842 13.3131 8.52842ZM4.19598 16.1455C4.19598 11.1103 8.27785 7.02842 13.3131 7.02842C18.3483 7.02842 22.4302 11.1103 22.4302 16.1455C22.4302 21.1808 18.3483 25.2626 13.3131 25.2626C8.27785 25.2626 4.19598 21.1808 4.19598 16.1455ZM27.0786 37.5282C27.0786 33.3214 30.4889 29.9111 34.6957 29.9111C38.9025 29.9111 42.3128 33.3214 42.3128 37.5282C42.3128 41.735 38.9025 45.1453 34.6957 45.1453C30.4889 45.1453 27.0786 41.735 27.0786 37.5282ZM34.6957 28.4111C29.6605 28.4111 25.5786 32.493 25.5786 37.5282C25.5786 42.5634 29.6605 46.6453 34.6957 46.6453C39.731 46.6453 43.8128 42.5634 43.8128 37.5282C43.8128 32.493 39.731 28.4111 34.6957 28.4111Z" fill="#979797"/>
</svg>
