<svg width="56" height="56" viewBox="0 0 56 56" fill="none" xmlns="http://www.w3.org/2000/svg">
<path d="M7.68388 0.6804C6.0862 1.13064 4.83124 2.40688 4.40228 4.01576C4.29476 4.4016 4.2522 5.4208 4.2522 7.74816V10.9441L4.52044 11.2017L4.77804 11.4699H26.1628C46.3787 11.4699 47.5687 11.4593 47.7832 11.2767C47.912 11.1804 48.0408 10.9228 48.0727 10.7083C48.1265 10.3975 48.0834 10.2687 47.8689 10.0111L47.6007 9.70032L26.8269 9.6684L6.06436 9.64712L6.09684 6.98768C6.12876 4.51024 6.13996 4.3064 6.36508 3.90992C6.63332 3.40592 7.1586 2.89128 7.68444 2.6124C8.049 2.4192 8.75684 2.40856 28.0074 2.40856H47.9551L48.3841 2.64432C48.8881 2.91256 49.4027 3.43784 49.6816 3.96368C49.8748 4.32824 49.8855 5.0792 49.8855 26.1638V47.9864L49.6497 48.426C49.1776 49.3052 48.0946 49.9705 47.1297 49.9705C46.9471 49.9705 46.7114 50.078 46.5613 50.2387C46.3037 50.4851 46.2931 50.5389 46.2931 52.0621V53.6172H28.0068H9.72172V52.7055V51.7938H26.7844H43.847L44.1578 51.483C44.5867 51.0541 44.5442 50.4857 44.0503 50.1105C43.9215 50.003 39.932 49.9817 26.226 49.971C6.60028 49.971 7.87652 50.0142 7.02924 49.2526C6.79348 49.0381 6.49276 48.6629 6.36452 48.4266L6.12876 47.987L6.075 30.9137L6.02124 13.8404L5.79612 13.6046C5.45284 13.272 4.8094 13.2938 4.4986 13.669L4.2522 13.9479V30.8594C4.2522 44.6298 4.28412 47.8688 4.40228 48.3084C4.80996 49.8316 5.92492 51.0322 7.405 51.5362L7.89836 51.7082V53.2633V54.8184L8.20916 55.1292L8.51996 55.44H28.0063H47.4937L47.8045 55.1292L48.1153 54.8184V53.2633V51.7082L48.6087 51.5362C50.1425 51.011 51.3112 49.7129 51.6439 48.1471C51.7402 47.7075 51.762 42.1736 51.7402 25.7863L51.7083 4.0152L51.365 3.28608C50.8929 2.28872 50.0887 1.47336 49.0914 0.980558L48.2872 0.583521L28.2325 0.562242C12.3705 0.551602 8.07028 0.57344 7.68388 0.6804Z" fill="#C41230"/>
<path d="M36.3403 4.40161C35.6968 4.72361 35.4179 5.15257 35.3748 5.94609C35.3429 6.48257 35.3748 6.64329 35.5893 6.95409C35.9645 7.50121 36.3509 7.73697 36.9512 7.80137C37.6266 7.86577 38.0343 7.70505 38.4957 7.17921C39.3111 6.27817 39.0103 4.89497 37.8842 4.38033C37.3051 4.12329 36.9087 4.12329 36.3403 4.40161Z" fill="#C41230"/>
<path d="M43.6324 4.40159C42.4525 4.99127 42.3024 6.66455 43.3642 7.46871C44.2328 8.13343 45.5947 7.81199 46.0668 6.82527C46.335 6.26751 46.3456 5.91359 46.1205 5.37767C45.6809 4.31591 44.641 3.90823 43.6324 4.40159Z" fill="#C41230"/>
<path d="M10.0431 5.3564C9.58224 5.81728 9.67856 6.53632 10.2576 6.82584C10.4614 6.93336 11.5019 6.96528 14.3546 6.96528H18.1726L18.5053 6.6864C18.9342 6.33248 18.9667 5.796 18.5697 5.41016L18.3121 5.14192H14.2795C10.4189 5.14192 10.247 5.15256 10.0431 5.3564Z" fill="#C41230"/>
<path d="M10.1506 13.389C9.56096 13.5178 8.91752 13.893 8.55296 14.3326C7.85576 15.1799 7.88824 14.1719 7.92016 30.9344L7.95208 46.163L8.18784 46.6026C8.50984 47.2142 9.22832 47.7932 9.87176 47.9864C10.6759 48.2222 45.3377 48.2334 46.1424 47.9864C46.7965 47.7932 47.3867 47.3217 47.7726 46.6676L48.0621 46.1636L48.094 30.935C48.1259 14.1725 48.1584 15.1805 47.4612 14.3332C47.2786 14.1081 46.8822 13.7967 46.5708 13.636L46.0237 13.3465L28.2745 13.3358C18.5159 13.3246 10.3545 13.3459 10.1506 13.389ZM45.9811 15.4269L46.2387 15.6307L46.2706 30.6449L46.2919 45.6702L46.0343 45.9704L45.7773 46.2706H28.0068H10.2363L9.97872 45.9704L9.72112 45.6702L9.7424 30.6449L9.77432 15.6307L10.0319 15.4269C10.2789 15.223 10.7185 15.223 28.0062 15.223C45.2951 15.223 45.7347 15.223 45.9811 15.4269Z" fill="#C41230"/>
<path d="M21.6794 28.1355C19.4809 28.5645 17.6687 29.5618 16.1455 31.1707C12.9177 34.6024 12.4775 39.718 15.0944 43.633C15.6841 44.5234 16.1881 44.6734 16.7783 44.1476C17.111 43.8368 17.0891 43.311 16.7033 42.7532C13.4536 38.0022 15.8241 31.5997 21.4218 30.0658C22.3654 29.7976 24.5214 29.7976 25.4863 30.0658C28.232 30.8056 30.5594 33.0792 31.3316 35.7498C31.9319 37.8627 31.6211 40.3721 30.5274 42.1417C29.809 43.3216 29.7552 43.4823 29.9271 43.9006C30.0234 44.1364 30.1842 44.2971 30.4098 44.3727C30.9351 44.5547 31.2784 44.3727 31.7824 43.6111C33.3801 41.2087 33.8734 38.2917 33.155 35.4822C32.9511 34.678 32.1895 33.0372 31.7074 32.3294C30.388 30.4198 28.2107 28.8966 25.9158 28.3069C24.7684 28.0067 22.763 27.921 21.6794 28.1355Z" fill="#C41230"/>
<path d="M31.5355 28.2425C31.3104 28.4357 31.2354 28.5858 31.2354 28.8966C31.2354 29.2074 31.3104 29.3574 31.5355 29.5506L31.825 29.8077H36.9194H42.0243L42.3351 29.4969C42.5177 29.3037 42.6459 29.0679 42.6459 28.8966C42.6459 28.7252 42.5171 28.4889 42.3351 28.2962L42.0243 27.9854H36.9194H31.825L31.5355 28.2425Z" fill="#C41230"/>
<path d="M34.2917 31.9105C33.8628 32.2644 33.8303 32.8003 34.2273 33.1867L34.4849 33.455H38.2924H42.0886L42.3675 33.1223C42.7321 32.6934 42.7214 32.3288 42.335 31.9424L42.0242 31.6316H38.3243H34.6244L34.2917 31.9105Z" fill="#C41230"/>
<path d="M22.4841 33.5726C21.2616 33.8083 19.8885 34.8914 19.3419 36.0394C17.765 39.3854 20.4569 43.0427 24.1143 42.5488C25.5299 42.3668 26.8918 41.3476 27.5566 39.9963C27.8786 39.3422 27.8999 39.2454 27.8999 38.066C27.8999 36.8973 27.8786 36.7898 27.5566 36.1032C26.6555 34.2054 24.5751 33.1649 22.4841 33.5726ZM24.779 35.6854C25.6694 36.1682 26.1303 36.983 26.1303 38.0666C26.1303 38.8494 25.9589 39.289 25.4331 39.8681C24.8753 40.4902 24.2856 40.7473 23.4383 40.7473C21.8619 40.7366 20.7145 39.5892 20.7251 38.0122C20.7358 35.9425 22.9343 34.6774 24.779 35.6854Z" fill="#C41230"/>
<path d="M35.3854 35.3853C35.0746 35.5141 34.785 36.0825 34.8814 36.3826C34.9138 36.5114 35.0533 36.7259 35.1709 36.8547C35.3854 37.1011 35.4066 37.1011 38.7526 37.1011C41.9486 37.1011 42.1199 37.0905 42.3238 36.8866C42.774 36.4364 42.667 35.6961 42.1093 35.4172C41.7878 35.2565 35.7718 35.224 35.3854 35.3853Z" fill="#C41230"/>
<path d="M35.396 39.0746C34.7951 39.3428 34.6988 40.3508 35.2459 40.6403C35.4604 40.7585 41.8629 40.7904 42.163 40.6834C42.2487 40.6403 42.4094 40.469 42.4957 40.2976C42.7314 39.8474 42.6032 39.3859 42.1849 39.1289C41.8634 38.9357 41.6165 38.925 38.7851 38.925C36.4577 38.9351 35.6536 38.967 35.396 39.0746Z" fill="#C41230"/>
<path d="M34.1842 42.9565C33.8841 43.3317 33.9053 43.7819 34.2167 44.147L34.4737 44.4472L38.1311 44.4797C41.2951 44.501 41.831 44.4903 42.1099 44.3402C42.6783 44.0401 42.7853 43.3535 42.3244 42.8926C42.1205 42.6888 41.9492 42.6782 38.2599 42.6782H34.3993L34.1842 42.9565Z" fill="#C41230"/>
</svg>
