<svg width="44" height="43" viewBox="0 0 44 43" fill="none" xmlns="http://www.w3.org/2000/svg">
<path fill-rule="evenodd" clip-rule="evenodd" d="M21.6979 0.000918643C22.7667 -0.0194576 23.813 0.308808 24.6786 0.936053C25.8529 1.67991 27.1546 3.14106 28.7752 4.06556C31.0492 5.36731 35.268 3.57143 37.4305 6.78064C38.6897 8.65091 38.7482 10.1174 38.8438 11.5626C38.9116 13.4428 39.6075 15.2462 40.8203 16.6846C43.477 20.186 44.0083 22.5292 42.6534 24.9467C41.7236 26.6044 39.763 27.5289 39.3114 28.5756C38.3444 30.8125 39.4123 32.4915 38.0893 35.095C37.6726 35.953 37.0833 36.7158 36.3583 37.3356C35.6333 37.9554 34.7882 38.419 33.8759 38.6974C32.2819 39.2287 30.6879 38.4689 29.4181 39.0056C27.1812 39.9513 25.5288 42.1351 23.7276 42.6877C22.3902 43.1041 20.9578 43.1041 19.6204 42.6877C17.8405 42.1563 16.188 39.9513 13.9565 39.0109C12.6813 38.4796 11.0873 39.2181 9.49865 38.7027C8.58466 38.4265 7.73786 37.9637 7.01174 37.3437C6.28562 36.7236 5.69593 35.9598 5.27992 35.1003C3.97817 32.4968 5.04614 30.8178 4.0685 28.581C3.61156 27.5183 1.65096 26.6097 0.721141 24.952C-0.644367 22.5238 -0.0917876 20.1701 2.55953 16.6899C3.76671 15.2481 4.46182 13.4468 4.53606 11.5679C4.62639 10.1174 4.68484 8.65091 5.94939 6.78595C8.10658 3.598 12.3253 5.37263 14.6047 4.07088C16.1987 3.14637 17.5323 1.68522 18.6959 0.946679C19.5666 0.312288 20.6208 -0.019858 21.6979 0.000918643Z" fill="#C41230"/>
<path fill-rule="evenodd" clip-rule="evenodd" d="M21.6341 9.00146C24.172 9.00146 26.6528 9.75402 28.763 11.164C30.8731 12.5739 32.5177 14.5779 33.4889 16.9226C34.4601 19.2672 34.7142 21.8472 34.2191 24.3363C33.724 26.8254 32.5019 29.1117 30.7074 30.9063C28.9129 32.7008 26.6265 33.9229 24.1374 34.418C21.6484 34.9131 19.0684 34.659 16.7237 33.6878C14.3791 32.7166 12.3751 31.0719 10.9651 28.9618C9.55517 26.8517 8.80261 24.3708 8.80261 21.833C8.80261 18.4299 10.1545 15.1661 12.5609 12.7597C14.9673 10.3534 18.231 9.00146 21.6341 9.00146V9.00146Z" fill="#C41230"/>
<path fill-rule="evenodd" clip-rule="evenodd" d="M18.1593 19.2721L20.6671 21.6419L25.7094 16.5146C26.2035 16.0098 26.517 15.606 27.1334 16.2383L29.1312 18.2786C29.7847 18.9268 29.7528 19.3093 29.1312 19.915L21.8042 27.0986C20.5024 28.3791 20.7415 28.4588 19.4079 27.1464L14.796 22.5611C14.7323 22.5024 14.6824 22.4303 14.65 22.35C14.6176 22.2698 14.6034 22.1833 14.6085 22.0968C14.6136 22.0104 14.6378 21.9262 14.6794 21.8502C14.721 21.7743 14.779 21.7086 14.8491 21.6578L17.1657 19.2562C17.5164 18.8949 17.798 18.9162 18.1593 19.2562V19.2721Z" fill="white"/>
</svg>
