<svg width="237" height="68" viewBox="0 0 237 68" fill="none" xmlns="http://www.w3.org/2000/svg">
<path d="M68.947 8.432H73.165L75.607 17.238C76.125 19.088 76.5813 20.8147 76.976 22.418C77.3953 23.9967 77.679 25.119 77.827 25.785L78.049 26.784C78.3697 24.5887 79.0603 21.3943 80.121 17.201L82.415 8.062H88.224L81.564 33H75.2L73.017 25.119C72.499 23.2197 72.0673 21.6163 71.722 20.309C71.4013 19.0017 71.204 18.163 71.13 17.793L71.056 17.238C70.982 18.2493 70.316 20.8763 69.058 25.119L66.764 33H60.4L53.703 8.062H59.697L61.991 17.238C62.4843 19.2113 62.8913 20.9997 63.212 22.603C63.5327 24.1817 63.73 25.2793 63.804 25.896L63.952 26.784C64.3713 24.86 65.21 21.678 66.468 17.238L68.947 8.432ZM94.281 33V8.062H99.979V33H94.281ZM113.436 28.005H122.649V33H107.738V8.062H113.436V28.005ZM142.788 9.172V14.5C140.79 13.3407 138.718 12.761 136.572 12.761C135.61 12.761 134.87 12.9583 134.352 13.353C133.858 13.7477 133.612 14.2533 133.612 14.87C133.612 15.4867 133.92 16.0417 134.537 16.535C135.153 17.0037 136.078 17.5093 137.312 18.052C138.076 18.3973 138.705 18.7057 139.199 18.977C139.717 19.2237 140.296 19.5813 140.938 20.05C141.604 20.494 142.122 20.975 142.492 21.493C142.886 21.9863 143.219 22.603 143.491 23.343C143.762 24.083 143.898 24.8847 143.898 25.748C143.898 27.9927 143.071 29.818 141.419 31.224C139.766 32.6053 137.571 33.296 134.833 33.296C131.897 33.296 129.505 32.778 127.655 31.742V26.007C129.899 27.635 132.292 28.449 134.833 28.449C135.696 28.449 136.411 28.227 136.979 27.783C137.546 27.3143 137.83 26.71 137.83 25.97C137.83 25.7233 137.793 25.489 137.719 25.267C137.645 25.045 137.509 24.8353 137.312 24.638C137.114 24.4407 136.917 24.2803 136.72 24.157C136.547 24.009 136.276 23.8487 135.906 23.676C135.56 23.4787 135.264 23.3183 135.018 23.195C134.771 23.0717 134.401 22.899 133.908 22.677C133.439 22.455 133.057 22.2823 132.761 22.159C131.157 21.419 129.862 20.5063 128.876 19.421C127.914 18.3357 127.433 16.8927 127.433 15.092C127.433 12.946 128.222 11.2193 129.801 9.912C131.379 8.58 133.562 7.914 136.35 7.914C138.841 7.914 140.987 8.33333 142.788 9.172ZM164.828 8.062H170.563V33H164.828V23.047H155.689V33H149.991V8.062H155.689V18.2H164.828V8.062ZM178.316 33V8.062H184.014V33H178.316ZM197.471 12.687V19.717H200.172C202.639 19.717 203.872 18.5083 203.872 16.091C203.872 15.0303 203.551 14.204 202.91 13.612C202.269 12.9953 201.393 12.687 200.283 12.687H197.471ZM204.612 33L199.21 24.342H197.471V33H191.773V8.062H200.394C203.181 8.062 205.414 8.802 207.091 10.282C208.793 11.762 209.644 13.686 209.644 16.054C209.644 19.606 208.127 22.0603 205.093 23.417L211.42 33H204.612ZM222.826 28.449H232.594V33H217.091V8.062H232.446V12.613H222.826V18.274H231.41V22.788H222.826V28.449Z" fill="#221610"/>
<path d="M59.628 51.9778V54.2578H60.504C61.304 54.2578 61.704 53.8658 61.704 53.0818C61.704 52.7378 61.6 52.4698 61.392 52.2778C61.184 52.0778 60.9 51.9778 60.54 51.9778H59.628ZM61.944 58.5658L60.192 55.7578H59.628V58.5658H57.78V50.4778H60.576C61.48 50.4778 62.204 50.7178 62.748 51.1978C63.3 51.6778 63.576 52.3018 63.576 53.0698C63.576 54.2218 63.084 55.0178 62.1 55.4578L64.152 58.5658H61.944ZM74.3311 57.0898H77.4991V58.5658H72.4711V50.4778H77.4511V51.9538H74.3311V53.7898H77.1151V55.2538H74.3311V57.0898ZM91.2504 51.9538H88.1784V54.0418H90.8544V55.5178H88.1784V58.5658H86.3184V50.4778H91.2504V51.9538ZM101.557 51.9778V54.2578H102.433C103.233 54.2578 103.633 53.8658 103.633 53.0818C103.633 52.7378 103.529 52.4698 103.321 52.2778C103.113 52.0778 102.829 51.9778 102.469 51.9778H101.557ZM103.873 58.5658L102.121 55.7578H101.557V58.5658H99.7087V50.4778H102.505C103.409 50.4778 104.133 50.7178 104.677 51.1978C105.229 51.6778 105.505 52.3018 105.505 53.0698C105.505 54.2218 105.013 55.0178 104.029 55.4578L106.081 58.5658H103.873ZM114.52 58.5658V50.4778H116.368V58.5658H114.52ZM132.336 53.7418V57.8218C131.568 58.3818 130.6 58.6618 129.432 58.6618C128.136 58.6618 127.084 58.2898 126.276 57.5458C125.468 56.8018 125.064 55.7898 125.064 54.5098C125.064 53.2458 125.484 52.2338 126.324 51.4738C127.172 50.7138 128.244 50.3338 129.54 50.3338C130.452 50.3338 131.24 50.5018 131.904 50.8378V52.6858C131.136 52.2458 130.348 52.0258 129.54 52.0258C128.78 52.0258 128.176 52.2538 127.728 52.7098C127.28 53.1578 127.056 53.7578 127.056 54.5098C127.056 55.2698 127.276 55.8738 127.716 56.3218C128.156 56.7698 128.756 56.9938 129.516 56.9938C129.86 56.9938 130.2 56.9418 130.536 56.8378V55.3138H129.228V53.7418H132.336ZM143.017 57.0898H146.185V58.5658H141.157V50.4778H146.137V51.9538H143.017V53.7898H145.801V55.2538H143.017V57.0898ZM156.852 51.9778V54.2578H157.728C158.528 54.2578 158.928 53.8658 158.928 53.0818C158.928 52.7378 158.824 52.4698 158.616 52.2778C158.408 52.0778 158.124 51.9778 157.764 51.9778H156.852ZM159.168 58.5658L157.416 55.7578H156.852V58.5658H155.004V50.4778H157.8C158.704 50.4778 159.428 50.7178 159.972 51.1978C160.524 51.6778 160.8 52.3018 160.8 53.0698C160.8 54.2218 160.308 55.0178 159.324 55.4578L161.376 58.5658H159.168ZM172.059 55.4218H174.003L173.919 55.1338C173.687 54.3498 173.495 53.6818 173.343 53.1298C173.199 52.5778 173.111 52.2218 173.079 52.0618L173.031 51.8218C172.967 52.2618 172.671 53.3658 172.143 55.1338L172.059 55.4218ZM174.939 58.5658L174.447 56.9098H171.615L171.123 58.5658H169.191L171.891 50.4778H174.219L176.919 58.5658H174.939ZM190.689 50.4778V51.9658H188.721V58.5658H186.861V51.9658H184.881V50.4778H190.689ZM199.268 58.5658V50.4778H201.116V58.5658H199.268ZM209.813 54.4978C209.813 53.2578 210.169 52.2578 210.881 51.4978C211.601 50.7298 212.557 50.3458 213.749 50.3458C214.949 50.3458 215.905 50.7258 216.617 51.4858C217.329 52.2458 217.685 53.2498 217.685 54.4978C217.685 55.7378 217.325 56.7418 216.605 57.5098C215.893 58.2698 214.941 58.6498 213.749 58.6498C212.549 58.6498 211.593 58.2698 210.881 57.5098C210.169 56.7498 209.813 55.7458 209.813 54.4978ZM212.321 52.6978C211.969 53.1378 211.793 53.7378 211.793 54.4978C211.793 55.2578 211.969 55.8618 212.321 56.3098C212.673 56.7498 213.149 56.9698 213.749 56.9698C214.349 56.9698 214.825 56.7498 215.177 56.3098C215.529 55.8618 215.705 55.2578 215.705 54.4978C215.705 53.7378 215.529 53.1378 215.177 52.6978C214.825 52.2498 214.349 52.0258 213.749 52.0258C213.149 52.0258 212.673 52.2498 212.321 52.6978ZM226.268 58.5658V50.4778H228.296L230.18 53.8258C230.444 54.2978 230.672 54.7418 230.864 55.1578C231.064 55.5658 231.192 55.8538 231.248 56.0218L231.344 56.2858C231.264 55.6938 231.224 54.8738 231.224 53.8258V50.4778H233.072V58.5658H231.044L229.112 55.2178C228.856 54.7858 228.628 54.3618 228.428 53.9458C228.236 53.5218 228.104 53.2098 228.032 53.0098L227.936 52.7098C228.056 53.4298 228.116 54.2658 228.116 55.2178V58.5658H226.268Z" fill="#221610"/>
<path d="M57 42H233" stroke="#C41230"/>
<path d="M10.5332 43.087L13.4028 40.4087C10.9541 29.3896 19.2695 28.5478 23.7332 29.5043L18.3767 34.4783L19.1419 38.8783L23.7332 39.6435L28.8985 34.287C30.1228 45.4591 21.5651 45.7652 17.4202 44.4261M10.5332 43.087L10.1506 41.5565C9.13033 42.1304 6.59236 43.8522 4.6028 46.1478C2.75352 47.9333 -0.179808 53.3791 2.88106 60.8783H0.776714V67H13.0202V60.8783H10.9158L15.5071 53.9913L14.3593 47.8696M10.5332 43.087C10.3802 46.607 11.1071 49.7826 11.4898 50.9304L14.3593 47.8696M14.3593 47.8696L17.4202 44.4261M17.4202 44.4261L14.9332 42.7043M17.6115 26.8261V1H44.3941V35.0522M17.6115 57.4348V61.8348H23.3506M44.3941 35.0522V61.8348H38.0811M44.3941 35.0522H39.6115M31.768 35.0522H39.6115M39.6115 35.0522L37.6985 38.3043H32.5332M26.7941 58.7739H20.2898M30.4289 58.7739H28.8985M38.0811 61.8348L39.8028 64.8956H21.055L23.3506 61.8348M38.0811 61.8348H23.3506M37.1245 4.25217H41.1419V12.4783M33.1071 12.4783V9.9913H28.7071V17.2609H33.1071V15.1565M14.9332 27.5913C13.1477 28.4203 9.65323 31.3026 9.95932 36.2" stroke="#C41230"/>
<path d="M18.3312 1.34274H42.8898H43.7883V61.9225H17.7322V58.5226L17.1333 57.5953L18.3312 50.4865C32.2782 47.6862 33.1869 38.9022 31.9753 34.0803C29.5793 25.9205 21.9796 26.1804 18.3312 26.4833V1.34274Z" fill="#C41230" stroke="#C41230"/>
<path d="M33.187 15.2761V17.3964H28.9464V10.1268H33.187V12.55" stroke="white" stroke-width="2"/>
<path d="M41.3652 12.2471V4.37177H37.4275" stroke="white" stroke-width="2"/>
<path d="M44.9999 34.9645H31.6724" stroke="white" stroke-width="2"/>
<path d="M39.8506 34.9645L37.7304 38.2964H31.9753" stroke="white" stroke-width="2"/>
<path d="M30.4608 58.8934H28.9463" stroke="white" stroke-width="2"/>
<path d="M26.5231 58.8934H20.4652" stroke="white" stroke-width="2"/>
</svg>
