<svg width="170" height="45" viewBox="0 0 170 45" fill="none" xmlns="http://www.w3.org/2000/svg">
<path d="M0.602 1.228H9.806V34.504H26.857V43H0.602V1.228ZM29.6955 22.114C29.6955 18.7707 30.2461 15.742 31.3475 13.028C32.4881 10.314 34.0615 8.013 36.0675 6.125C38.0735 4.19767 40.4531 2.72266 43.2065 1.7C45.9598 0.677332 48.9688 0.165999 52.2335 0.165999C55.4981 0.165999 58.5071 0.677332 61.2605 1.7C64.0138 2.72266 66.3935 4.19767 68.3995 6.125C70.4055 8.013 71.9591 10.314 73.0605 13.028C74.2011 15.742 74.7715 18.7707 74.7715 22.114C74.7715 25.4573 74.2011 28.486 73.0605 31.2C71.9591 33.914 70.4055 36.2347 68.3995 38.162C66.3935 40.05 64.0138 41.5053 61.2605 42.528C58.5071 43.5507 55.4981 44.062 52.2335 44.062C48.9688 44.062 45.9598 43.5507 43.2065 42.528C40.4531 41.5053 38.0735 40.05 36.0675 38.162C34.0615 36.2347 32.4881 33.914 31.3475 31.2C30.2461 28.486 29.6955 25.4573 29.6955 22.114ZM39.2535 22.114C39.2535 24.0807 39.5485 25.89 40.1385 27.542C40.7678 29.1547 41.6528 30.5707 42.7935 31.79C43.9341 32.97 45.2911 33.8943 46.8645 34.563C48.4771 35.2317 50.2668 35.566 52.2335 35.566C54.2001 35.566 55.9701 35.2317 57.5435 34.563C59.1561 33.8943 60.5328 32.97 61.6735 31.79C62.8141 30.5707 63.6795 29.1547 64.2695 27.542C64.8988 25.89 65.2135 24.0807 65.2135 22.114C65.2135 20.1867 64.8988 18.397 64.2695 16.745C63.6795 15.093 62.8141 13.677 61.6735 12.497C60.5328 11.2777 59.1561 10.3337 57.5435 9.665C55.9701 8.99633 54.2001 8.662 52.2335 8.662C50.2668 8.662 48.4771 8.99633 46.8645 9.665C45.2911 10.3337 43.9341 11.2777 42.7935 12.497C41.6528 13.677 40.7678 15.093 40.1385 16.745C39.5485 18.397 39.2535 20.1867 39.2535 22.114ZM118.846 40.05C116.132 41.466 113.3 42.4887 110.35 43.118C107.4 43.7473 104.391 44.062 101.323 44.062C98.0586 44.062 95.0496 43.5507 92.2963 42.528C89.543 41.5053 87.1633 40.05 85.1573 38.162C83.1513 36.2347 81.578 33.914 80.4373 31.2C79.336 28.486 78.7853 25.4573 78.7853 22.114C78.7853 18.7707 79.336 15.742 80.4373 13.028C81.578 10.314 83.1513 8.013 85.1573 6.125C87.1633 4.19767 89.543 2.72266 92.2963 1.7C95.0496 0.677332 98.0586 0.165999 101.323 0.165999C104.667 0.165999 107.735 0.578999 110.527 1.405C113.359 2.19166 115.837 3.56833 117.961 5.535L111.471 12.615C110.213 11.317 108.797 10.3337 107.223 9.665C105.65 8.99633 103.683 8.662 101.323 8.662C99.3566 8.662 97.567 8.99633 95.9543 9.665C94.381 10.3337 93.024 11.2777 91.8833 12.497C90.7426 13.677 89.8576 15.093 89.2283 16.745C88.6383 18.397 88.3433 20.1867 88.3433 22.114C88.3433 24.0807 88.6383 25.89 89.2283 27.542C89.8576 29.1547 90.7426 30.5707 91.8833 31.79C93.024 32.97 94.381 33.8943 95.9543 34.563C97.567 35.2317 99.3566 35.566 101.323 35.566C103.329 35.566 105.06 35.3497 106.515 34.917C107.971 34.445 109.131 33.973 109.996 33.501V26.716H102.503V18.22H118.846V40.05ZM124.706 22.114C124.706 18.7707 125.257 15.742 126.358 13.028C127.499 10.314 129.072 8.013 131.078 6.125C133.084 4.19767 135.464 2.72266 138.217 1.7C140.971 0.677332 143.98 0.165999 147.244 0.165999C150.509 0.165999 153.518 0.677332 156.271 1.7C159.025 2.72266 161.404 4.19767 163.41 6.125C165.416 8.013 166.97 10.314 168.071 13.028C169.212 15.742 169.782 18.7707 169.782 22.114C169.782 25.4573 169.212 28.486 168.071 31.2C166.97 33.914 165.416 36.2347 163.41 38.162C161.404 40.05 159.025 41.5053 156.271 42.528C153.518 43.5507 150.509 44.062 147.244 44.062C143.98 44.062 140.971 43.5507 138.217 42.528C135.464 41.5053 133.084 40.05 131.078 38.162C129.072 36.2347 127.499 33.914 126.358 31.2C125.257 28.486 124.706 25.4573 124.706 22.114ZM134.264 22.114C134.264 24.0807 134.559 25.89 135.149 27.542C135.779 29.1547 136.664 30.5707 137.804 31.79C138.945 32.97 140.302 33.8943 141.875 34.563C143.488 35.2317 145.278 35.566 147.244 35.566C149.211 35.566 150.981 35.2317 152.554 34.563C154.167 33.8943 155.544 32.97 156.684 31.79C157.825 30.5707 158.69 29.1547 159.28 27.542C159.91 25.89 160.224 24.0807 160.224 22.114C160.224 20.1867 159.91 18.397 159.28 16.745C158.69 15.093 157.825 13.677 156.684 12.497C155.544 11.2777 154.167 10.3337 152.554 9.665C150.981 8.99633 149.211 8.662 147.244 8.662C145.278 8.662 143.488 8.99633 141.875 9.665C140.302 10.3337 138.945 11.2777 137.804 12.497C136.664 13.677 135.779 15.093 135.149 16.745C134.559 18.397 134.264 20.1867 134.264 22.114Z" fill="white"/>
</svg>
