<svg width="56" height="56" viewBox="0 0 56 56" fill="none" xmlns="http://www.w3.org/2000/svg">
<rect width="56" height="56" fill="white"/>
<path d="M8.4212 0.696634C8.34617 0.771674 8.2924 1.12503 8.2924 1.53215V2.25008L7.67081 2.42143C6.47073 2.75351 5.39945 3.76096 5.03489 4.87536C4.87417 5.36816 4.86353 7.68264 4.86353 30.2898C4.86353 49.5012 4.89545 55.2009 4.99233 55.2978C5.19617 55.5016 50.8608 55.4798 51.0327 55.2759C51.1184 55.169 51.1509 48.6007 51.129 30.0222L51.0971 4.90728L50.8076 4.30696C50.2829 3.24632 49.2648 2.464 48.2042 2.31392L47.722 2.24952V1.54224C47.722 1.12448 47.6682 0.770554 47.5932 0.696074C47.4112 0.514634 8.60376 0.514634 8.4212 0.696634ZM46.8646 1.8536V2.282H28.0072H9.14976V1.8536V1.4252H28.0072H46.8646V1.8536ZM48.483 3.26815C49.0296 3.42887 49.7044 4.00735 50.0046 4.57519C50.2297 4.99295 50.2403 5.14304 50.2722 8.35744L50.3047 11.7001L48.6762 11.7326C47.2617 11.7645 47.0366 11.7863 46.9296 11.947C46.8439 12.0865 46.8439 12.1934 46.9296 12.3222C47.0366 12.4936 47.2617 12.5149 48.6762 12.5474L50.2941 12.5793V30.5687V48.5582L48.6762 48.5901C47.2617 48.622 47.0366 48.6439 46.9296 48.8046C46.8439 48.944 46.8439 49.051 46.9296 49.1798C47.0366 49.3511 47.2617 49.3724 48.6762 49.4049L50.2941 49.4368V51.9977V54.5692H28.0072H5.72145V51.9977V49.4262L25.1254 49.4049C43.4794 49.373 44.5401 49.3623 44.6577 49.1798C44.7434 49.051 44.7434 48.944 44.6577 48.8046C44.5401 48.6332 43.4794 48.6226 25.1254 48.5901L5.72145 48.5688V30.5687V12.5686L25.1254 12.5474C43.4794 12.5154 44.5401 12.5042 44.6577 12.3222C44.7434 12.1934 44.7434 12.0865 44.6577 11.947C44.5401 11.7757 43.4794 11.765 25.1254 11.7326L5.71081 11.7113L5.74273 8.46496C5.77465 5.49696 5.79649 5.1968 5.98913 4.80032C6.28929 4.20056 6.93216 3.61088 7.57504 3.36448C8.1216 3.15 8.43241 3.15 28.1041 3.15C42.9648 3.13936 48.1829 3.17183 48.483 3.26815Z" fill="#C41230" stroke="#C41230" stroke-width="0.5"/>
<path d="M11.6681 5.08928C10.7681 5.40008 10.7037 5.432 10.6931 5.72152C10.6825 5.86096 10.6074 6.12864 10.5217 6.3C10.1253 7.09296 10.179 7.88592 10.6931 8.73208C11.1646 9.5032 11.9357 9.93216 12.8469 9.92152C13.254 9.92152 13.6398 9.84648 13.8649 9.72888C14.0688 9.62192 14.3577 9.53624 14.4972 9.52504C14.7867 9.5144 14.8293 9.45 15.1507 8.4644C15.6435 6.98544 15.1081 5.68904 13.758 5.07864C13.1465 4.80032 12.4929 4.81096 11.6681 5.08928ZM13.5323 5.92536C13.9713 6.13984 14.3253 6.622 14.4429 7.14672C14.5179 7.44688 14.3465 8.17544 14.2071 8.17544C14.164 8.17544 13.6286 7.672 13.007 7.0504C11.9251 5.96792 11.9033 5.936 12.1603 5.82904C12.5786 5.65768 13.0927 5.70024 13.5323 5.92536ZM13.3609 9.00032C12.9107 9.19296 12.568 9.17168 12.0433 8.89336C11.2503 8.50752 10.8757 7.56448 11.2077 6.83592L11.336 6.55704L12.4929 7.714L13.6605 8.87096L13.3609 9.00032Z" fill="#C41230" stroke="#C41230" stroke-width="0.5"/>
<path d="M21.9536 5.08929C21.0537 5.40009 20.9893 5.43201 20.9787 5.72153C20.968 5.86097 20.893 6.12865 20.8073 6.30001C20.2182 7.46761 20.7003 8.93593 21.8892 9.60009C22.5965 9.99657 23.539 10.0503 24.1499 9.72889C24.3538 9.62193 24.6427 9.53624 24.7822 9.52504C25.0717 9.5144 25.1143 9.45001 25.4357 8.46441C25.8322 7.25369 25.5751 6.23561 24.6859 5.47513C23.936 4.82161 23.0787 4.70401 21.9536 5.08929ZM24.0323 6.02169C24.4826 6.34313 24.7178 6.83593 24.729 7.45753C24.729 8.37873 24.5895 8.34681 23.3256 7.08233C22.2112 5.95729 22.1899 5.93601 22.4363 5.82849C22.8429 5.65769 23.6465 5.75401 24.0323 6.02169ZM23.6465 9.00033C23.2287 9.18233 22.8748 9.16105 22.3714 8.93593C21.5784 8.58257 21.1713 7.62889 21.4715 6.87849L21.6109 6.54641L22.7791 7.71457L23.9467 8.87153L23.6465 9.00033Z" fill="#C41230" stroke="#C41230" stroke-width="0.5"/>
<path d="M32.4541 5.02544C32.2183 5.12176 31.8969 5.21808 31.7362 5.25056C31.4041 5.31496 31.179 5.52888 31.254 5.73272C31.2753 5.80776 31.2114 6.04352 31.1146 6.2468C30.6968 7.10416 30.7394 7.86464 31.2646 8.73264C31.7362 9.50376 32.5073 9.93272 33.4184 9.92208C33.8255 9.92208 34.2114 9.84704 34.4365 9.72944C34.6398 9.62248 34.9293 9.5368 35.0687 9.5256C35.3577 9.51496 35.4008 9.45056 35.7116 8.49688C36.1187 7.24304 35.9686 6.48256 35.1331 5.65768C34.3609 4.87536 33.4184 4.65024 32.4541 5.02544ZM34.3071 6.0004C34.9606 6.4932 35.2395 7.30744 34.9713 7.9716L34.8318 8.30368L33.6637 7.13552L32.4966 5.97912L32.7968 5.83968C33.1933 5.66832 33.9644 5.74336 34.3071 6.0004ZM33.9756 9.00032C33.6222 9.19296 33.172 9.17168 32.6579 8.91464C31.9081 8.56128 31.5542 7.76832 31.7686 6.97536L31.8868 6.53632L33.0544 7.70392C34.1789 8.82896 34.2108 8.87152 33.9756 9.00032Z" fill="#C41230" stroke="#C41230" stroke-width="0.5"/>
<path d="M42.5257 5.08928C41.6258 5.40008 41.5614 5.432 41.5508 5.72152C41.5401 5.86096 41.4651 6.12864 41.3794 6.3C40.9829 7.09296 41.0367 7.88592 41.5508 8.73208C42.0223 9.5032 42.7934 9.93216 43.7045 9.92152C44.1116 9.92152 44.4975 9.84648 44.7226 9.72888C44.9259 9.62192 45.2154 9.53624 45.3548 9.52504C45.6438 9.5144 45.6869 9.45 45.9977 8.49632C46.4049 7.24248 46.2548 6.482 45.4192 5.65712C44.5932 4.83224 43.7577 4.66088 42.5257 5.08928ZM44.5932 6.0004C45.2468 6.4932 45.5257 7.30744 45.2574 7.9716L45.118 8.30368L43.9504 7.13552L42.7822 5.97856L43.0824 5.83912C43.4794 5.66832 44.2505 5.74336 44.5932 6.0004ZM44.2612 9.00032C43.7471 9.28928 43.0611 9.11792 42.4932 8.57192C42.043 8.14352 41.8823 7.57568 42.043 6.97536L42.1712 6.53632L43.3394 7.70392C44.465 8.82896 44.4969 8.87152 44.2612 9.00032Z" fill="#C41230" stroke="#C41230" stroke-width="0.5"/>
<path d="M12.8463 15.6649C11.2391 16.0614 9.95338 17.9256 10.3286 19.3295C10.5212 20.0474 11.3035 20.4008 12.0427 20.1118C12.493 19.9298 12.7926 19.5227 12.7926 19.105C12.7926 18.7942 13.0709 18.2907 13.2747 18.205C13.3711 18.1731 20.1319 18.1406 28.2855 18.1406C42.9111 18.1406 43.1143 18.1406 43.3288 18.3551C43.447 18.4727 43.5646 18.6872 43.5965 18.8373C43.6284 18.9874 43.6715 19.2338 43.7035 19.3838C43.8855 20.2412 45.1068 20.5195 45.7822 19.8447C46.1574 19.4807 46.2431 19.0518 46.1143 18.3557C45.9104 17.295 45.2675 16.4483 44.2607 15.913L43.7035 15.6234L28.4351 15.6022C20.0356 15.6005 13.0283 15.6218 12.8463 15.6649ZM43.3294 16.5435C43.6295 16.6079 44.0686 16.8112 44.315 17.0044C45.3219 17.7649 45.7077 19.6185 44.8078 19.3939C44.5827 19.3295 44.5183 19.2332 44.4651 18.8686C44.3687 18.2795 44.0792 17.8186 43.6295 17.551C43.2762 17.3365 43.083 17.3365 28.2223 17.3365C13.361 17.3365 13.1683 17.3365 12.815 17.551C12.3647 17.8186 12.0758 18.2795 11.9795 18.8686C11.9257 19.2332 11.8619 19.3295 11.6367 19.3939C11.0476 19.5334 10.9619 18.8048 11.4329 17.8293C11.7331 17.2295 12.3222 16.758 12.9757 16.5754C13.6606 16.3934 42.4827 16.361 43.3294 16.5435Z" fill="#C41230" stroke="#C41230" stroke-width="0.5"/>
<path d="M12.8895 22.2432C12.6325 22.3826 12.2786 22.7041 12.0966 22.9505L11.7751 23.4114V32.7113V42.0112L12.0966 42.4721C12.2786 42.7291 12.6325 43.0399 12.9002 43.1794L13.3823 43.4258H27.6864C37.5542 43.4258 42.1187 43.3938 42.3976 43.3082C42.933 43.1581 43.6083 42.4833 43.7584 41.9367C43.8335 41.6472 43.8547 38.6366 43.8441 32.4654L43.8122 23.4119L43.4907 22.951C43.3194 22.7046 42.9548 22.3832 42.6978 22.2438L42.2263 21.9974H27.7934H13.3611L12.8895 22.2432ZM23.025 25.2112C24.3326 26.5076 25.4683 27.5688 25.5646 27.5688C25.7679 27.5688 26.0787 27.2899 26.0787 27.1079C26.0787 27.0435 25.1575 26.0579 24.0212 24.9222L21.9638 22.8542H32.0141C41.1214 22.8542 42.0963 22.8754 42.364 23.0255C43.0388 23.4326 43.0069 22.9079 43.0069 32.6581C43.0069 42.4833 43.0388 42.0549 42.3103 42.3976C42.0207 42.537 41.5067 42.569 39.4604 42.569H36.9533L30.3111 35.9257C26.6577 32.2722 23.5934 29.283 23.4965 29.283C23.2714 29.283 23.0787 29.4974 23.0787 29.7545C23.0787 29.9046 25.1894 32.0796 29.3681 36.269L35.6681 42.569H24.5896C14.5393 42.569 13.4999 42.5583 13.2216 42.3976C12.5468 41.9905 12.5787 42.5158 12.5787 32.7118C12.5787 24.6758 12.6 23.7653 12.7501 23.5082C13.1359 22.8654 13.1466 22.8654 17.0789 22.8547H20.6573L23.025 25.2112Z" fill="#C41230" stroke="#C41230" stroke-width="0.5"/>
<path d="M27.4719 29.0153C27.3968 29.101 27.3649 29.283 27.3968 29.4118C27.4825 29.7226 31.7682 33.9976 31.9933 33.9976C32.1966 33.9976 32.5074 33.7187 32.5074 33.5367C32.5074 33.3441 27.9753 28.8546 27.7715 28.8546C27.6858 28.854 27.5469 28.929 27.4719 29.0153Z" fill="#C41230" stroke="#C41230" stroke-width="0.5"/>
</svg>
