<svg width="56" height="56" viewBox="0 0 56 56" fill="none" xmlns="http://www.w3.org/2000/svg">
<path d="M41.1321 0.56H14.8513C11.3177 0.56 8.27686 3.5168 8.27686 6.9608V49.0448C8.27686 52.4832 11.3177 55.4456 14.8513 55.4456H41.1489C44.6825 55.4456 47.7233 52.4888 47.7233 49.0448V6.9608C47.7233 3.5168 44.6657 0.56 41.1321 0.56ZM46.0097 49.0392C46.0097 51.5368 43.7417 53.7208 41.1489 53.7208H14.8513C12.2641 53.7208 9.99046 51.5312 9.99046 49.0392V21.14H46.0041V49.0392H46.0097ZM46.0097 19.4264H9.99046V6.9608C9.99046 4.4632 12.2585 2.2792 14.8513 2.2792H41.1321C43.7305 2.2792 46.0097 4.4688 46.0097 6.9608V19.4264ZM14.7113 4.8496C13.5297 4.8496 12.5665 5.8072 12.5665 6.9832V14.7224C12.5665 15.8984 13.5297 16.856 14.7113 16.856C15.8929 16.856 16.8561 15.8984 16.8561 14.7224V6.9832C16.8505 5.8016 15.8929 4.8496 14.7113 4.8496ZM15.1369 14.7168C15.1369 14.9464 14.9409 15.1368 14.7057 15.1368C14.4705 15.1368 14.2745 14.9464 14.2745 14.7168V6.9832C14.2745 6.7536 14.4705 6.5632 14.7057 6.5632C14.9409 6.5632 15.1369 6.7536 15.1369 6.9832V14.7168ZM14.7113 39.816C15.8761 39.816 16.8561 38.8976 16.8561 37.772V25.6536C16.8561 24.528 15.8817 23.6096 14.7113 23.6096C13.5465 23.6096 12.5665 24.528 12.5665 25.6536V37.772C12.5665 38.8976 13.5409 39.816 14.7113 39.816ZM14.2801 25.6536C14.2801 25.4744 14.4929 25.3232 14.7113 25.3232C14.9297 25.3232 15.1425 25.4744 15.1425 25.6536V37.772C15.1425 37.9512 14.9297 38.1024 14.7113 38.1024C14.4929 38.1024 14.2801 37.9512 14.2801 37.772V25.6536ZM42.5769 9.2456C42.1009 9.2456 41.7201 9.632 41.7201 10.1024V15.9936C41.7201 16.4696 42.1065 16.8504 42.5769 16.8504C43.0529 16.8504 43.4337 16.4696 43.4337 15.9936V10.1024C43.4337 9.6264 43.0529 9.2456 42.5769 9.2456ZM42.5769 46.5976C43.0529 46.5976 43.4337 46.2168 43.4337 45.7408V24.668C43.4337 24.192 43.0529 23.8112 42.5769 23.8112C42.1009 23.8112 41.7201 24.192 41.7201 24.668V45.7408C41.7201 46.2168 42.1009 46.5976 42.5769 46.5976ZM42.5769 5.2584C42.1009 5.2584 41.7201 5.6448 41.7201 6.1152V7.0448C41.7201 7.5208 42.1065 7.9016 42.5769 7.9016C43.0529 7.9016 43.4337 7.5208 43.4337 7.0448V6.1152C43.4337 5.6448 43.0529 5.2584 42.5769 5.2584Z" fill="#C41230"/>
</svg>
