<svg width="56" height="56" viewBox="0 0 56 56" fill="none" xmlns="http://www.w3.org/2000/svg">
<path d="M6.59188 0.757119C6.26092 0.875279 5.81124 1.19448 5.3974 1.60888C4.2382 2.77984 4.3446 0.0593589 4.3446 27.9972C4.3446 55.935 4.2382 53.2146 5.3974 54.3855C6.5566 55.5447 4.3446 55.4383 28.0007 55.4383C51.6568 55.4383 49.4448 55.5447 50.604 54.3855C51.7632 53.2146 51.6568 55.935 51.6568 27.9972C51.6568 0.0593589 51.7632 2.77984 50.604 1.60888C49.4448 0.449677 51.6685 0.556075 27.9536 0.567835C9.253 0.567835 7.06452 0.591359 6.59188 0.757119ZM49.3731 2.83863L49.704 3.15783L49.7393 8.48063L49.7746 13.8029H28.0001H6.22508L6.26036 8.4924C6.29564 3.37064 6.3074 3.1696 6.53252 2.92152C6.66244 2.77928 6.8758 2.61408 7.00572 2.55472C7.13564 2.50768 16.6456 2.47184 28.1424 2.4836L49.0539 2.50712L49.3731 2.83863ZM49.7399 34.2653L49.7046 52.8349L49.3736 53.1541L49.0544 53.485H28.0001H6.94636L6.62716 53.1541L6.2962 52.8349L6.26092 34.2653L6.2374 15.6957H28.0001H49.7634L49.7399 34.2653Z" fill="#C41230"/>
<path d="M36.8712 5.488C36.1258 5.76016 35.0853 6.82472 34.8249 7.58128C34.3988 8.8116 34.6709 9.85208 35.6767 10.8578C36.7177 11.8871 36.8236 11.9106 41.2476 11.9106C45.671 11.9106 45.7774 11.8871 46.8184 10.8578C47.5162 10.1483 47.8712 9.40296 47.8712 8.5988C47.8712 7.3808 46.7714 5.89008 45.5764 5.488C44.7369 5.20408 37.6871 5.20408 36.8712 5.488ZM45.5881 7.56952C45.872 7.85344 45.9191 7.98336 45.9191 8.5988C45.9191 9.21368 45.872 9.34416 45.5881 9.62808L45.2689 9.95904H41.2476H37.2262L36.907 9.62808C36.6231 9.34416 36.576 9.21424 36.576 8.61056C36.576 7.87696 36.7771 7.49896 37.2856 7.2856C37.4155 7.23856 39.2607 7.20272 41.3898 7.21448L45.2695 7.238L45.5881 7.56952Z" fill="#C41230"/>
<path d="M44.2754 17.7066C43.483 17.9553 42.6313 18.7947 42.3238 19.6347C41.9929 20.4982 42.3003 21.5863 43.0692 22.3552C43.7199 23.0177 44.1573 23.1952 45.0326 23.1952C45.9078 23.1952 46.3452 23.0177 46.9842 22.3793C47.6231 21.7409 47.8001 21.303 47.8001 20.4277C47.8001 19.9192 47.729 19.5289 47.599 19.2802C47.3386 18.7835 46.6644 18.121 46.2035 17.873C45.7538 17.6473 44.7486 17.5526 44.2754 17.7066ZM45.7421 19.717C45.8961 19.8705 45.9784 20.1074 45.9784 20.4266C45.9784 20.7458 45.8955 20.9826 45.7421 21.1361C45.5886 21.2901 45.3518 21.3724 45.0326 21.3724C44.7134 21.3724 44.4765 21.2895 44.323 21.1361C44.1696 20.9821 44.0867 20.7458 44.0867 20.4266C44.0867 20.1074 44.1696 19.8705 44.323 19.717C44.477 19.563 44.7134 19.4807 45.0326 19.4807C45.3518 19.4807 45.5881 19.5636 45.7421 19.717Z" fill="#C41230"/>
<path d="M25.8121 20.6041C24.2391 20.8404 23.0446 21.2307 21.5539 21.9526C17.1657 24.0934 14.1613 27.949 13.1326 32.7634C12.8487 34.1001 12.8487 37.0334 13.1326 38.3701C14.4453 44.5088 19.0585 49.1215 25.1973 50.4347C26.534 50.7186 29.4673 50.7186 30.804 50.4347C36.9427 49.1215 41.5554 44.5088 42.8686 38.3701C43.1525 37.0334 43.1525 34.1001 42.8686 32.7634C42.0516 28.943 39.9583 25.6782 36.8593 23.3839C35.7001 22.5204 33.3817 21.3612 32.1401 21.0185C30.0698 20.4506 27.7514 20.2966 25.8121 20.6041ZM30.7799 22.6033C34.8489 23.5021 38.0655 25.9745 39.8401 29.5938C41.7447 33.4734 41.7206 37.767 39.769 41.6584C36.5518 48.057 28.6149 50.6352 22.0271 47.4062C14.8714 43.8934 12.553 34.762 17.0829 27.9614C17.8041 26.8733 19.3066 25.3708 20.3947 24.6495C22.0271 23.5732 24.1439 22.7332 26.0485 22.4375C27.0419 22.2835 29.7859 22.3782 30.7799 22.6033Z" fill="#C41230"/>
<path d="M26.0486 24.3774C21.9797 25.158 18.5614 28.103 17.2129 32.018C16.8579 33.0473 17.1536 33.6739 18.0053 33.6739C18.4903 33.6739 18.8095 33.3189 19.0699 32.4912C20.1468 29.1558 22.9854 26.7786 26.5806 26.2108C27.6569 26.045 27.7398 26.0098 27.9409 25.6194C28.2601 25.0163 27.9173 24.3891 27.2196 24.2827C27.0303 24.2469 26.5101 24.2945 26.0486 24.3774Z" fill="#C41230"/>
<path d="M16.9412 34.916C16.3498 35.4956 16.7637 36.5126 17.5919 36.5126C17.8165 36.5126 18.0651 36.4062 18.2426 36.2169C18.4319 36.0394 18.5383 35.7913 18.5383 35.5662C18.5383 35.3416 18.4319 35.093 18.2426 34.9154C18.0651 34.7262 17.817 34.6198 17.5919 34.6198C17.3668 34.6203 17.1181 34.7267 16.9412 34.916Z" fill="#C41230"/>
</svg>
