<svg width="56" height="56" viewBox="0 0 56 56" fill="none" xmlns="http://www.w3.org/2000/svg">
<g clip-path="url(#clip0_159_395)">
<path fill-rule="evenodd" clip-rule="evenodd" d="M7.08496 1.73045C7.08496 0.846798 7.80131 0.130453 8.68496 0.130453H24.0713H25.3999H48.3151C49.1987 0.130453 49.9151 0.846797 49.9151 1.73045V14.4626V28.1332V41.7839V54.4346C49.9151 55.3183 49.1987 56.0346 48.3151 56.0346H25.3999H24.0713H8.68496C7.8013 56.0346 7.08496 55.3183 7.08496 54.4346V41.7839V28.1332V14.4626V1.73045ZM8.68496 1.33045C8.46405 1.33045 8.28496 1.50954 8.28496 1.73045V13.8626H48.7151V1.73045C48.7151 1.50954 48.536 1.33045 48.3151 1.33045H25.3999H24.0713H8.68496ZM48.7151 15.0626H8.28496V27.5332H48.7151V15.0626ZM48.7151 28.7332H8.28496V41.1839H48.7151V28.7332ZM48.7151 42.3839H8.28496V54.4346C8.28496 54.6556 8.46405 54.8346 8.68496 54.8346H24.0713H25.3999H48.3151C48.536 54.8346 48.7151 54.6556 48.7151 54.4346V42.3839ZM26.2187 47.7472H30.9737V50.1247H26.2187V47.7472ZM38.1063 47.7472H33.3513V50.1247H38.1063V47.7472ZM16.942 9.88622C18.3501 9.88622 19.4916 8.74474 19.4916 7.33666C19.4916 5.92858 18.3501 4.78711 16.942 4.78711C15.534 4.78711 14.3925 5.92858 14.3925 7.33666C14.3925 8.74474 15.534 9.88622 16.942 9.88622ZM16.942 10.5862C18.7367 10.5862 20.1916 9.13134 20.1916 7.33666C20.1916 5.54198 18.7367 4.08711 16.942 4.08711C15.1474 4.08711 13.6925 5.54198 13.6925 7.33666C13.6925 9.13134 15.1474 10.5862 16.942 10.5862ZM23.841 47.7472H19.086V50.1247H23.841V47.7472ZM28.6405 9.88622C30.0486 9.88622 31.19 8.74474 31.19 7.33666C31.19 5.92858 30.0486 4.78711 28.6405 4.78711C27.2324 4.78711 26.0909 5.92858 26.0909 7.33666C26.0909 8.74474 27.2324 9.88622 28.6405 9.88622ZM28.6405 10.5862C30.4352 10.5862 31.89 9.13134 31.89 7.33666C31.89 5.54198 30.4352 4.08711 28.6405 4.08711C26.8458 4.08711 25.3909 5.54198 25.3909 7.33666C25.3909 9.13134 26.8458 10.5862 28.6405 10.5862ZM42.8885 7.33666C42.8885 8.74474 41.747 9.88622 40.3389 9.88622C38.9308 9.88622 37.7894 8.74474 37.7894 7.33666C37.7894 5.92858 38.9308 4.78711 40.3389 4.78711C41.747 4.78711 42.8885 5.92858 42.8885 7.33666ZM43.5885 7.33666C43.5885 9.13134 42.1336 10.5862 40.3389 10.5862C38.5442 10.5862 37.0894 9.13134 37.0894 7.33666C37.0894 5.54198 38.5442 4.08711 40.3389 4.08711C42.1336 4.08711 43.5885 5.54198 43.5885 7.33666ZM16.942 24.1843C18.3501 24.1843 19.4916 23.0428 19.4916 21.6347C19.4916 20.2266 18.3501 19.0851 16.942 19.0851C15.534 19.0851 14.3925 20.2266 14.3925 21.6347C14.3925 23.0428 15.534 24.1843 16.942 24.1843ZM16.942 24.8843C18.7367 24.8843 20.1916 23.4294 20.1916 21.6347C20.1916 19.84 18.7367 18.3851 16.942 18.3851C15.1474 18.3851 13.6925 19.84 13.6925 21.6347C13.6925 23.4294 15.1474 24.8843 16.942 24.8843ZM31.19 21.6347C31.19 23.0428 30.0486 24.1843 28.6405 24.1843C27.2324 24.1843 26.0909 23.0428 26.0909 21.6347C26.0909 20.2266 27.2324 19.0851 28.6405 19.0851C30.0486 19.0851 31.19 20.2266 31.19 21.6347ZM31.89 21.6347C31.89 23.4294 30.4352 24.8843 28.6405 24.8843C26.8458 24.8843 25.3909 23.4294 25.3909 21.6347C25.3909 19.84 26.8458 18.3851 28.6405 18.3851C30.4352 18.3851 31.89 19.84 31.89 21.6347ZM40.3389 24.1843C41.747 24.1843 42.8885 23.0428 42.8885 21.6347C42.8885 20.2266 41.747 19.0851 40.3389 19.0851C38.9308 19.0851 37.7894 20.2266 37.7894 21.6347C37.7894 23.0428 38.9308 24.1843 40.3389 24.1843ZM40.3389 24.8843C42.1336 24.8843 43.5885 23.4294 43.5885 21.6347C43.5885 19.84 42.1336 18.3851 40.3389 18.3851C38.5442 18.3851 37.0894 19.84 37.0894 21.6347C37.0894 23.4294 38.5442 24.8843 40.3389 24.8843ZM19.4916 35.9327C19.4916 37.3408 18.3501 38.4823 16.942 38.4823C15.534 38.4823 14.3925 37.3408 14.3925 35.9327C14.3925 34.5246 15.534 33.3832 16.942 33.3832C18.3501 33.3832 19.4916 34.5246 19.4916 35.9327ZM20.1916 35.9327C20.1916 37.7274 18.7367 39.1823 16.942 39.1823C15.1474 39.1823 13.6925 37.7274 13.6925 35.9327C13.6925 34.1381 15.1474 32.6832 16.942 32.6832C18.7367 32.6832 20.1916 34.1381 20.1916 35.9327ZM28.6405 38.4823C30.0486 38.4823 31.19 37.3408 31.19 35.9327C31.19 34.5246 30.0486 33.3832 28.6405 33.3832C27.2324 33.3832 26.0909 34.5246 26.0909 35.9327C26.0909 37.3408 27.2324 38.4823 28.6405 38.4823ZM28.6405 39.1823C30.4352 39.1823 31.89 37.7274 31.89 35.9327C31.89 34.1381 30.4352 32.6832 28.6405 32.6832C26.8458 32.6832 25.3909 34.1381 25.3909 35.9327C25.3909 37.7274 26.8458 39.1823 28.6405 39.1823ZM42.8885 35.9327C42.8885 37.3408 41.747 38.4823 40.3389 38.4823C38.9308 38.4823 37.7894 37.3408 37.7894 35.9327C37.7894 34.5246 38.9308 33.3832 40.3389 33.3832C41.747 33.3832 42.8885 34.5246 42.8885 35.9327ZM43.5885 35.9327C43.5885 37.7274 42.1336 39.1823 40.3389 39.1823C38.5442 39.1823 37.0894 37.7274 37.0894 35.9327C37.0894 34.1381 38.5442 32.6832 40.3389 32.6832C42.1336 32.6832 43.5885 34.1381 43.5885 35.9327Z" fill="#C41230"/>
<path d="M8.28496 13.8626H8.03496V14.1126H8.28496V13.8626ZM48.7151 13.8626V14.1126H48.9651V13.8626H48.7151ZM8.28496 15.0626V14.8126H8.03496V15.0626H8.28496ZM48.7151 15.0626H48.9651V14.8126H48.7151V15.0626ZM8.28496 27.5332H8.03496V27.7832H8.28496V27.5332ZM48.7151 27.5332V27.7832H48.9651V27.5332H48.7151ZM8.28496 28.7332V28.4832H8.03496V28.7332H8.28496ZM48.7151 28.7332H48.9651V28.4832H48.7151V28.7332ZM8.28496 41.1839H8.03496V41.4339H8.28496V41.1839ZM48.7151 41.1839V41.4339H48.9651V41.1839H48.7151ZM8.28496 42.3839V42.1339H8.03496V42.3839H8.28496ZM48.7151 42.3839H48.9651V42.1339H48.7151V42.3839ZM30.9737 47.7472H31.2237V47.4972H30.9737V47.7472ZM26.2187 47.7472V47.4972H25.9687V47.7472H26.2187ZM30.9737 50.1247V50.3747H31.2237V50.1247H30.9737ZM26.2187 50.1247H25.9687V50.3747H26.2187V50.1247ZM33.3513 47.7472V47.4972H33.1013V47.7472H33.3513ZM38.1063 47.7472H38.3563V47.4972H38.1063V47.7472ZM33.3513 50.1247H33.1013V50.3747H33.3513V50.1247ZM38.1063 50.1247V50.3747H38.3563V50.1247H38.1063ZM19.086 47.7472V47.4972H18.836V47.7472H19.086ZM23.841 47.7472H24.091V47.4972H23.841V47.7472ZM19.086 50.1247H18.836V50.3747H19.086V50.1247ZM23.841 50.1247V50.3747H24.091V50.1247H23.841ZM8.68496 -0.119547C7.66323 -0.119547 6.83496 0.708727 6.83496 1.73045H7.33496C7.33496 0.984869 7.93938 0.380453 8.68496 0.380453V-0.119547ZM24.0713 -0.119547H8.68496V0.380453H24.0713V-0.119547ZM25.3999 -0.119547H24.0713V0.380453H25.3999V-0.119547ZM48.3151 -0.119547H25.3999V0.380453H48.3151V-0.119547ZM50.1651 1.73045C50.1651 0.708725 49.3368 -0.119547 48.3151 -0.119547V0.380453C49.0606 0.380453 49.6651 0.984869 49.6651 1.73045H50.1651ZM50.1651 14.4626V1.73045H49.6651V14.4626H50.1651ZM50.1651 28.1332V14.4626H49.6651V28.1332H50.1651ZM50.1651 41.7839V28.1332H49.6651V41.7839H50.1651ZM50.1651 54.4346V41.7839H49.6651V54.4346H50.1651ZM48.3151 56.2846C49.3368 56.2846 50.1651 55.4564 50.1651 54.4346H49.6651C49.6651 55.1802 49.0606 55.7846 48.3151 55.7846V56.2846ZM25.3999 56.2846H48.3151V55.7846H25.3999V56.2846ZM24.0713 56.2846H25.3999V55.7846H24.0713V56.2846ZM8.68496 56.2846H24.0713V55.7846H8.68496V56.2846ZM6.83496 54.4346C6.83496 55.4564 7.66323 56.2846 8.68496 56.2846V55.7846C7.93938 55.7846 7.33496 55.1802 7.33496 54.4346H6.83496ZM6.83496 41.7839V54.4346H7.33496V41.7839H6.83496ZM6.83496 28.1332V41.7839H7.33496V28.1332H6.83496ZM6.83496 14.4626V28.1332H7.33496V14.4626H6.83496ZM6.83496 1.73045V14.4626H7.33496V1.73045H6.83496ZM8.53496 1.73045C8.53496 1.64761 8.60212 1.58045 8.68496 1.58045V1.08045C8.32598 1.08045 8.03496 1.37147 8.03496 1.73045H8.53496ZM8.53496 13.8626V1.73045H8.03496V13.8626H8.53496ZM48.7151 13.6126H8.28496V14.1126H48.7151V13.6126ZM48.4651 1.73045V13.8626H48.9651V1.73045H48.4651ZM48.3151 1.58045C48.3979 1.58045 48.4651 1.64761 48.4651 1.73045H48.9651C48.9651 1.37147 48.674 1.08045 48.3151 1.08045V1.58045ZM25.3999 1.58045H48.3151V1.08045H25.3999V1.58045ZM24.0713 1.58045H25.3999V1.08045H24.0713V1.58045ZM8.68496 1.58045H24.0713V1.08045H8.68496V1.58045ZM8.28496 15.3126H48.7151V14.8126H8.28496V15.3126ZM8.53496 27.5332V15.0626H8.03496V27.5332H8.53496ZM48.7151 27.2832H8.28496V27.7832H48.7151V27.2832ZM48.4651 15.0626V27.5332H48.9651V15.0626H48.4651ZM8.28496 28.9832H48.7151V28.4832H8.28496V28.9832ZM8.53496 41.1839V28.7332H8.03496V41.1839H8.53496ZM48.7151 40.9339H8.28496V41.4339H48.7151V40.9339ZM48.4651 28.7332V41.1839H48.9651V28.7332H48.4651ZM8.28496 42.6339H48.7151V42.1339H8.28496V42.6339ZM8.53496 54.4346V42.3839H8.03496V54.4346H8.53496ZM8.68496 54.5846C8.60212 54.5846 8.53496 54.5175 8.53496 54.4346H8.03496C8.03496 54.7936 8.32598 55.0846 8.68496 55.0846V54.5846ZM24.0713 54.5846H8.68496V55.0846H24.0713V54.5846ZM25.3999 54.5846H24.0713V55.0846H25.3999V54.5846ZM48.3151 54.5846H25.3999V55.0846H48.3151V54.5846ZM48.4651 54.4346C48.4651 54.5175 48.3979 54.5846 48.3151 54.5846V55.0846C48.674 55.0846 48.9651 54.7936 48.9651 54.4346H48.4651ZM48.4651 42.3839V54.4346H48.9651V42.3839H48.4651ZM30.9737 47.4972H26.2187V47.9972H30.9737V47.4972ZM31.2237 50.1247V47.7472H30.7237V50.1247H31.2237ZM26.2187 50.3747H30.9737V49.8747H26.2187V50.3747ZM25.9687 47.7472V50.1247H26.4687V47.7472H25.9687ZM33.3513 47.9972H38.1063V47.4972H33.3513V47.9972ZM33.6013 50.1247V47.7472H33.1013V50.1247H33.6013ZM38.1063 49.8747H33.3513V50.3747H38.1063V49.8747ZM37.8563 47.7472V50.1247H38.3563V47.7472H37.8563ZM19.2416 7.33666C19.2416 8.60667 18.212 9.63622 16.942 9.63622V10.1362C18.4882 10.1362 19.7416 8.88281 19.7416 7.33666H19.2416ZM16.942 5.03711C18.212 5.03711 19.2416 6.06665 19.2416 7.33666H19.7416C19.7416 5.79051 18.4882 4.53711 16.942 4.53711V5.03711ZM14.6425 7.33666C14.6425 6.06665 15.672 5.03711 16.942 5.03711V4.53711C15.3959 4.53711 14.1425 5.79051 14.1425 7.33666H14.6425ZM16.942 9.63622C15.672 9.63622 14.6425 8.60667 14.6425 7.33666H14.1425C14.1425 8.88281 15.3959 10.1362 16.942 10.1362V9.63622ZM19.9416 7.33666C19.9416 8.99327 18.5986 10.3362 16.942 10.3362V10.8362C18.8748 10.8362 20.4416 9.26941 20.4416 7.33666H19.9416ZM16.942 4.33711C18.5986 4.33711 19.9416 5.68005 19.9416 7.33666H20.4416C20.4416 5.40391 18.8748 3.83711 16.942 3.83711V4.33711ZM13.9425 7.33666C13.9425 5.68005 15.2854 4.33711 16.942 4.33711V3.83711C15.0093 3.83711 13.4425 5.40391 13.4425 7.33666H13.9425ZM16.942 10.3362C15.2854 10.3362 13.9425 8.99327 13.9425 7.33666H13.4425C13.4425 9.26941 15.0093 10.8362 16.942 10.8362V10.3362ZM19.086 47.9972H23.841V47.4972H19.086V47.9972ZM19.336 50.1247V47.7472H18.836V50.1247H19.336ZM23.841 49.8747H19.086V50.3747H23.841V49.8747ZM23.591 47.7472V50.1247H24.091V47.7472H23.591ZM30.94 7.33666C30.94 8.60667 29.9105 9.63622 28.6405 9.63622V10.1362C30.1866 10.1362 31.44 8.88281 31.44 7.33666H30.94ZM28.6405 5.03711C29.9105 5.03711 30.94 6.06665 30.94 7.33666H31.44C31.44 5.79051 30.1866 4.53711 28.6405 4.53711V5.03711ZM26.3409 7.33666C26.3409 6.06665 27.3705 5.03711 28.6405 5.03711V4.53711C27.0943 4.53711 25.8409 5.79051 25.8409 7.33666H26.3409ZM28.6405 9.63622C27.3705 9.63622 26.3409 8.60667 26.3409 7.33666H25.8409C25.8409 8.88281 27.0943 10.1362 28.6405 10.1362V9.63622ZM31.64 7.33666C31.64 8.99327 30.2971 10.3362 28.6405 10.3362V10.8362C30.5732 10.8362 32.14 9.26941 32.14 7.33666H31.64ZM28.6405 4.33711C30.2971 4.33711 31.64 5.68005 31.64 7.33666H32.14C32.14 5.40391 30.5732 3.83711 28.6405 3.83711V4.33711ZM25.6409 7.33666C25.6409 5.68005 26.9839 4.33711 28.6405 4.33711V3.83711C26.7077 3.83711 25.1409 5.40391 25.1409 7.33666H25.6409ZM28.6405 10.3362C26.9839 10.3362 25.6409 8.99327 25.6409 7.33666H25.1409C25.1409 9.26941 26.7077 10.8362 28.6405 10.8362V10.3362ZM40.3389 10.1362C41.8851 10.1362 43.1385 8.88281 43.1385 7.33666H42.6385C42.6385 8.60667 41.6089 9.63622 40.3389 9.63622V10.1362ZM37.5394 7.33666C37.5394 8.88281 38.7928 10.1362 40.3389 10.1362V9.63622C39.0689 9.63622 38.0394 8.60667 38.0394 7.33666H37.5394ZM40.3389 4.53711C38.7928 4.53711 37.5394 5.79051 37.5394 7.33666H38.0394C38.0394 6.06665 39.0689 5.03711 40.3389 5.03711V4.53711ZM43.1385 7.33666C43.1385 5.79051 41.8851 4.53711 40.3389 4.53711V5.03711C41.6089 5.03711 42.6385 6.06665 42.6385 7.33666H43.1385ZM40.3389 10.8362C42.2717 10.8362 43.8385 9.26941 43.8385 7.33666H43.3385C43.3385 8.99327 41.9955 10.3362 40.3389 10.3362V10.8362ZM36.8394 7.33666C36.8394 9.26941 38.4062 10.8362 40.3389 10.8362V10.3362C38.6823 10.3362 37.3394 8.99327 37.3394 7.33666H36.8394ZM40.3389 3.83711C38.4062 3.83711 36.8394 5.40391 36.8394 7.33666H37.3394C37.3394 5.68005 38.6823 4.33711 40.3389 4.33711V3.83711ZM43.8385 7.33666C43.8385 5.40391 42.2717 3.83711 40.3389 3.83711V4.33711C41.9955 4.33711 43.3385 5.68006 43.3385 7.33666H43.8385ZM19.2416 21.6347C19.2416 22.9047 18.212 23.9343 16.942 23.9343V24.4343C18.4882 24.4343 19.7416 23.1808 19.7416 21.6347H19.2416ZM16.942 19.3351C18.212 19.3351 19.2416 20.3647 19.2416 21.6347H19.7416C19.7416 20.0885 18.4882 18.8351 16.942 18.8351V19.3351ZM14.6425 21.6347C14.6425 20.3647 15.672 19.3351 16.942 19.3351V18.8351C15.3959 18.8351 14.1425 20.0885 14.1425 21.6347H14.6425ZM16.942 23.9343C15.672 23.9343 14.6425 22.9047 14.6425 21.6347H14.1425C14.1425 23.1808 15.3959 24.4343 16.942 24.4343V23.9343ZM19.9416 21.6347C19.9416 23.2913 18.5986 24.6343 16.942 24.6343V25.1343C18.8748 25.1343 20.4416 23.5674 20.4416 21.6347H19.9416ZM16.942 18.6351C18.5986 18.6351 19.9416 19.9781 19.9416 21.6347H20.4416C20.4416 19.7019 18.8748 18.1351 16.942 18.1351V18.6351ZM13.9425 21.6347C13.9425 19.9781 15.2854 18.6351 16.942 18.6351V18.1351C15.0093 18.1351 13.4425 19.7019 13.4425 21.6347H13.9425ZM16.942 24.6343C15.2854 24.6343 13.9425 23.2913 13.9425 21.6347H13.4425C13.4425 23.5674 15.0093 25.1343 16.942 25.1343V24.6343ZM28.6405 24.4343C30.1866 24.4343 31.44 23.1808 31.44 21.6347H30.94C30.94 22.9047 29.9105 23.9343 28.6405 23.9343V24.4343ZM25.8409 21.6347C25.8409 23.1808 27.0943 24.4343 28.6405 24.4343V23.9343C27.3705 23.9343 26.3409 22.9047 26.3409 21.6347H25.8409ZM28.6405 18.8351C27.0943 18.8351 25.8409 20.0885 25.8409 21.6347H26.3409C26.3409 20.3647 27.3705 19.3351 28.6405 19.3351V18.8351ZM31.44 21.6347C31.44 20.0885 30.1866 18.8351 28.6405 18.8351V19.3351C29.9105 19.3351 30.94 20.3647 30.94 21.6347H31.44ZM28.6405 25.1343C30.5732 25.1343 32.14 23.5674 32.14 21.6347H31.64C31.64 23.2913 30.2971 24.6343 28.6405 24.6343V25.1343ZM25.1409 21.6347C25.1409 23.5674 26.7077 25.1343 28.6405 25.1343V24.6343C26.9839 24.6343 25.6409 23.2913 25.6409 21.6347H25.1409ZM28.6405 18.1351C26.7077 18.1351 25.1409 19.7019 25.1409 21.6347H25.6409C25.6409 19.9781 26.9839 18.6351 28.6405 18.6351V18.1351ZM32.14 21.6347C32.14 19.7019 30.5732 18.1351 28.6405 18.1351V18.6351C30.2971 18.6351 31.64 19.9781 31.64 21.6347H32.14ZM42.6385 21.6347C42.6385 22.9047 41.6089 23.9343 40.3389 23.9343V24.4343C41.8851 24.4343 43.1385 23.1808 43.1385 21.6347H42.6385ZM40.3389 19.3351C41.6089 19.3351 42.6385 20.3647 42.6385 21.6347H43.1385C43.1385 20.0885 41.8851 18.8351 40.3389 18.8351V19.3351ZM38.0394 21.6347C38.0394 20.3647 39.0689 19.3351 40.3389 19.3351V18.8351C38.7928 18.8351 37.5394 20.0885 37.5394 21.6347H38.0394ZM40.3389 23.9343C39.0689 23.9343 38.0394 22.9047 38.0394 21.6347H37.5394C37.5394 23.1808 38.7928 24.4343 40.3389 24.4343V23.9343ZM43.3385 21.6347C43.3385 23.2913 41.9955 24.6343 40.3389 24.6343V25.1343C42.2717 25.1343 43.8385 23.5674 43.8385 21.6347H43.3385ZM40.3389 18.6351C41.9955 18.6351 43.3385 19.9781 43.3385 21.6347H43.8385C43.8385 19.7019 42.2717 18.1351 40.3389 18.1351V18.6351ZM37.3394 21.6347C37.3394 19.9781 38.6823 18.6351 40.3389 18.6351V18.1351C38.4062 18.1351 36.8394 19.7019 36.8394 21.6347H37.3394ZM40.3389 24.6343C38.6823 24.6343 37.3394 23.2913 37.3394 21.6347H36.8394C36.8394 23.5674 38.4062 25.1343 40.3389 25.1343V24.6343ZM16.942 38.7323C18.4882 38.7323 19.7416 37.4789 19.7416 35.9327H19.2416C19.2416 37.2027 18.212 38.2323 16.942 38.2323V38.7323ZM14.1425 35.9327C14.1425 37.4789 15.3959 38.7323 16.942 38.7323V38.2323C15.672 38.2323 14.6425 37.2027 14.6425 35.9327H14.1425ZM16.942 33.1332C15.3959 33.1332 14.1425 34.3866 14.1425 35.9327H14.6425C14.6425 34.6627 15.672 33.6332 16.942 33.6332V33.1332ZM19.7416 35.9327C19.7416 34.3866 18.4882 33.1332 16.942 33.1332V33.6332C18.212 33.6332 19.2416 34.6627 19.2416 35.9327H19.7416ZM16.942 39.4323C18.8748 39.4323 20.4416 37.8655 20.4416 35.9327H19.9416C19.9416 37.5893 18.5986 38.9323 16.942 38.9323V39.4323ZM13.4425 35.9327C13.4425 37.8655 15.0093 39.4323 16.942 39.4323V38.9323C15.2854 38.9323 13.9425 37.5893 13.9425 35.9327H13.4425ZM16.942 32.4332C15.0093 32.4332 13.4425 34 13.4425 35.9327H13.9425C13.9425 34.2761 15.2854 32.9332 16.942 32.9332V32.4332ZM20.4416 35.9327C20.4416 34 18.8748 32.4332 16.942 32.4332V32.9332C18.5986 32.9332 19.9416 34.2761 19.9416 35.9327H20.4416ZM30.94 35.9327C30.94 37.2027 29.9105 38.2323 28.6405 38.2323V38.7323C30.1866 38.7323 31.44 37.4789 31.44 35.9327H30.94ZM28.6405 33.6332C29.9105 33.6332 30.94 34.6627 30.94 35.9327H31.44C31.44 34.3866 30.1866 33.1332 28.6405 33.1332V33.6332ZM26.3409 35.9327C26.3409 34.6627 27.3705 33.6332 28.6405 33.6332V33.1332C27.0943 33.1332 25.8409 34.3866 25.8409 35.9327H26.3409ZM28.6405 38.2323C27.3705 38.2323 26.3409 37.2027 26.3409 35.9327H25.8409C25.8409 37.4789 27.0943 38.7323 28.6405 38.7323V38.2323ZM31.64 35.9327C31.64 37.5893 30.2971 38.9323 28.6405 38.9323V39.4323C30.5732 39.4323 32.14 37.8655 32.14 35.9327H31.64ZM28.6405 32.9332C30.2971 32.9332 31.64 34.2761 31.64 35.9327H32.14C32.14 34 30.5732 32.4332 28.6405 32.4332V32.9332ZM25.6409 35.9327C25.6409 34.2761 26.9839 32.9332 28.6405 32.9332V32.4332C26.7077 32.4332 25.1409 34 25.1409 35.9327H25.6409ZM28.6405 38.9323C26.9839 38.9323 25.6409 37.5893 25.6409 35.9327H25.1409C25.1409 37.8655 26.7077 39.4323 28.6405 39.4323V38.9323ZM40.3389 38.7323C41.8851 38.7323 43.1385 37.4789 43.1385 35.9327H42.6385C42.6385 37.2027 41.6089 38.2323 40.3389 38.2323V38.7323ZM37.5394 35.9327C37.5394 37.4789 38.7928 38.7323 40.3389 38.7323V38.2323C39.0689 38.2323 38.0394 37.2027 38.0394 35.9327H37.5394ZM40.3389 33.1332C38.7928 33.1332 37.5394 34.3866 37.5394 35.9327H38.0394C38.0394 34.6627 39.0689 33.6332 40.3389 33.6332V33.1332ZM43.1385 35.9327C43.1385 34.3866 41.8851 33.1332 40.3389 33.1332V33.6332C41.6089 33.6332 42.6385 34.6627 42.6385 35.9327H43.1385ZM40.3389 39.4323C42.2717 39.4323 43.8385 37.8655 43.8385 35.9327H43.3385C43.3385 37.5893 41.9955 38.9323 40.3389 38.9323V39.4323ZM36.8394 35.9327C36.8394 37.8655 38.4062 39.4323 40.3389 39.4323V38.9323C38.6823 38.9323 37.3394 37.5893 37.3394 35.9327H36.8394ZM40.3389 32.4332C38.4062 32.4332 36.8394 34 36.8394 35.9327H37.3394C37.3394 34.2761 38.6823 32.9332 40.3389 32.9332V32.4332ZM43.8385 35.9327C43.8385 34 42.2717 32.4332 40.3389 32.4332V32.9332C41.9955 32.9332 43.3385 34.2761 43.3385 35.9327H43.8385Z" fill="#C41230"/>
</g>
<defs>
<clipPath id="clip0_159_395">
<rect width="56" height="56" fill="white"/>
</clipPath>
</defs>
</svg>
